<?xml version="1.0" encoding="UTF-8"?>
<svg xmlns="http://www.w3.org/2000/svg" style="stroke-dasharray:none; shape-rendering:auto; font-family:'Arial'; text-rendering:auto; fill-opacity:1; color-interpolation:auto; color-rendering:auto; font-size:12; fill:black; stroke:black; image-rendering:auto; stroke-miterlimit:10; stroke-linecap:square; stroke-linejoin:miter; font-style:normal; stroke-width:1; stroke-dashoffset:0; font-weight:normal; stroke-opacity:1;" contentScriptType="text/ecmascript" preserveAspectRatio="xMidYMid meet" zoomAndPan="magnify" version="1.0" contentStyleType="text/css" xml:xlink="http://www.w3.org/1999/xlink" width="911" height="728"><rect x="40" y="583" width="871" height="145" ry="0" rx="0" style="stroke:#000000; fill:#0080C0" /><g componentSequence="20"><text x="-655" y="47" transform="rotate(270)" text-anchor="middle" style="font-weight:bold;font-size:10px;stroke:none; fill:#434343"><tspan dy="14" x="-655">Financiamento Moto</tspan></text></g><rect x="40" y="439" width="871" height="145" ry="0" rx="0" style="stroke:#000000; fill:#82B0B7" /><g componentSequence="19"><text x="-511" y="47" transform="rotate(270)" text-anchor="middle" style="font-weight:bold;font-size:10px;stroke:none; fill:#434343"><tspan dy="14" x="-511">Financiamento Carro</tspan></text></g><rect x="40" y="295" width="871" height="145" ry="0" rx="0" style="stroke:#000000; fill:#8080C0" /><g componentSequence="18"><text x="-367" y="47" transform="rotate(270)" text-anchor="middle" style="font-weight:bold;font-size:10px;stroke:none; fill:#434343"><tspan dy="14" x="-367">Financiamento Imóvel</tspan></text></g><rect x="40" y="6" width="871" height="145" ry="0" rx="0" style="stroke:#000000; fill:#FF80FF" /><g componentSequence="17"><text x="-78" y="47" transform="rotate(270)" text-anchor="middle" style="font-weight:bold;font-size:10px;stroke:none; fill:#434343"><tspan dy="14" x="-78">Inicio Solicitação</tspan></text></g><rect x="40" y="151" width="871" height="145" ry="0" rx="0" style="stroke:#000000; fill:#008000" /><g componentSequence="16"><text x="-223" y="47" transform="rotate(270)" text-anchor="middle" style="font-weight:bold;font-size:10px;stroke:none; fill:#434343"><tspan dy="14" x="-223">Analise de Setor</tspan></text></g><g sequence="1"><ellipse cx="127" cy="79" rx="17" ry="17" stroke-width="1" style="fill:url(#linearGradient66FF6696FF96B6FFB6_468179335);" stroke="336633" /></g><g sequence="2"><polygon points=" 180 220 210 190 240 220 210 250 180 220" style="fill:url(#linearGradientFAFBFCFFFFCC_354428043);" stroke="000000" /></g><ellipse cx="210" cy="220" rx="17" ry="17" stroke-width="1" style="fill:url(#linearGradientFAFBFCFFFFCC_287290103);" stroke="000000" /><g componentSequence="2"><text x="210" y="253" text-anchor="middle" style="font-weight:bold;font-size:10px;stroke:none; fill:#333399"><tspan dy="14" x="210">Inclusivo</tspan></text></g><g sequence="4"><rect x="400" y="330" width="106" height="70" ry="5" rx="5" style="fill:url(#linearGradientF8FBFEEDF5FCDEEDFAD4E7F8E2E5E9_1411198640);" stroke="191970" /></g><g componentSequence="4"><text x="453" y="354" text-anchor="middle" style="font-weight:bold;font-size:10px;stroke:none; fill:#333399"><tspan dy="14" x="453">Financiar Imovel</tspan></text></g><g sequence="6"><rect x="400" y="485" width="106" height="56" ry="5" rx="5" style="fill:url(#linearGradientF8FBFEEDF5FCDEEDFAD4E7F8E2E5E9_1897135701);" stroke="191970" /></g><g componentSequence="6"><text x="453" y="502" text-anchor="middle" style="font-weight:bold;font-size:10px;stroke:none; fill:#333399"><tspan dy="14" x="453">Financiar Carro</tspan></text></g><g sequence="8"><rect x="400" y="640" width="106" height="56" ry="5" rx="5" style="fill:url(#linearGradientF8FBFEEDF5FCDEEDFAD4E7F8E2E5E9_1703123072);" stroke="191970" /></g><g componentSequence="8"><text x="453" y="657" text-anchor="middle" style="font-weight:bold;font-size:10px;stroke:none; fill:#333399"><tspan dy="14" x="453">Financiar Moto</tspan></text></g><g sequence="10"><polygon points=" 660 499 690 469 720 499 690 529 660 499" style="fill:url(#linearGradientFAFBFCFFFFCC_157750989);" stroke="000000" /></g><path style="fill:none; stroke-width:6; stroke:#000000;" d="M680.0 499.0 L700.0 499.0" /><path style="fill:none; stroke-width:6; stroke:#000000;" d="M690.0 489.0 L690.0 509.0" /><g componentSequence="10"><text x="690" y="532" text-anchor="middle" style="font-weight:bold;font-size:10px;stroke:none; fill:#333399"><tspan dy="14" x="690">Join</tspan></text></g><g sequence="14"><ellipse cx="817" cy="512" rx="17" ry="17" stroke-width="3" style="fill:url(#linearGradientFF6666FF9696FFB6B6_875745791);" stroke="993333" /></g><g componentSequence="3"><text x="137" y="192" style="font-size:10px;font-weight:none;stroke:none; fill:#333399" text-anchor="left" /></g><g componentSequence="5"><text x="319" y="301" style="font-size:10px;font-weight:none;stroke:none; fill:#333399" text-anchor="left" /></g><g componentSequence="7"><text x="304" y="399" style="font-size:10px;font-weight:none;stroke:none; fill:#333399" text-anchor="left" /></g><g componentSequence="9"><text x="220" y="568" style="font-size:10px;font-weight:none;stroke:none; fill:#333399" text-anchor="left" /></g><g componentSequence="11"><text x="660" y="364" style="font-size:10px;font-weight:none;stroke:none; fill:#333399" text-anchor="left" /></g><g componentSequence="12"><text x="593" y="513" style="font-size:10px;font-weight:none;stroke:none; fill:#333399" text-anchor="left" /></g><g componentSequence="21"><text x="664" y="668" style="font-size:10px;font-weight:none;stroke:none; fill:#333399" text-anchor="left" /></g><g componentSequence="15"><text x="770" y="512" style="font-size:10px;font-weight:none;stroke:none; fill:#333399" text-anchor="left" /></g><path style="fill:none; stroke:#000000;stroke-width:1" d="M127.0 97.0 L127.0 235.0 L179.0 234.0" /><polygon style="fill:#000000; stroke:#000000;" points=" 169 229 179 234 169 239 171 234" /><path style="fill:none; stroke:#000000;stroke-width:1" d="M240.0 216.0 L240.0 216.0 L309.0 216.0 L309.0 365.0 L399.0 365.0" /><polygon style="fill:#000000; stroke:#000000;" points=" 389 360 399 365 389 370 391 365" /><path style="fill:none; stroke:#000000;stroke-width:1" d="M240.0 234.0 L294.0 234.0 L294.0 513.0 L399.0 513.0" /><polygon style="fill:#000000; stroke:#000000;" points=" 389 508 399 513 389 518 391 513" /><path style="fill:none; stroke:#000000;stroke-width:1" d="M210.0 278.0 L210.0 278.0 L210.0 668.0 L399.0 668.0" /><polygon style="fill:#000000; stroke:#000000;" points=" 389 663 399 668 389 673 391 668" /><path style="fill:none; stroke:#000000;stroke-width:1" d="M506.0 364.0 L689.0 364.0 L689.0 468.0" /><polygon style="fill:#000000; stroke:#000000;" points=" 694 458 689 468 684 458 689 460" /><path style="fill:none; stroke:#000000;stroke-width:1" d="M506.0 513.0 L659.0 513.0" /><polygon style="fill:#000000; stroke:#000000;" points=" 649 508 659 513 649 518 651 513" /><path style="fill:none; stroke:#000000;stroke-width:1" d="M720.0 512.0 L800.0 512.0" /><polygon style="fill:#000000; stroke:#000000;" points=" 790 507 800 512 790 517 792 512" /><path style="fill:none; stroke:#000000;stroke-width:1" d="M506.0 668.0 L690.0 668.0 L690.0 557.0" /><polygon style="fill:#000000; stroke:#000000;" points=" 685 567 690 557 695 567 690 565" /><defs><linearGradient xmlns:xlink="http://www.w3.org/1999/xlink" xlink:href="#linearGradient66FF6696FF96B6FFB6" id="linearGradient66FF6696FF96B6FFB6_468179335" x1="0" y1="62.0" x2="0" y2="97.0" gradientUnits="userSpaceOnUse" xlink:type="simple" xlink:actuate="onLoad" xlink:show="other" /><linearGradient id="linearGradient66FF6696FF96B6FFB6"><stop style="stop-color:#66FF66;stop-opacity:1;" offset="0.0" id="stop66FF66" /><stop style="stop-color:#96FF96;stop-opacity:1;" offset="0.5" id="stop96FF96" /><stop style="stop-color:#B6FFB6;stop-opacity:1;" offset="1.0" id="stopB6FFB6" /></linearGradient><linearGradient xmlns:xlink="http://www.w3.org/1999/xlink" xlink:href="#linearGradientFAFBFCFFFFCC" id="linearGradientFAFBFCFFFFCC_354428043" x1="0" y1="190.0" x2="0" y2="250.0" gradientUnits="userSpaceOnUse" xlink:type="simple" xlink:actuate="onLoad" xlink:show="other" /><linearGradient id="linearGradientFAFBFCFFFFCC"><stop style="stop-color:#FAFBFC;stop-opacity:1;" offset="0.0" id="stopFAFBFC" /><stop style="stop-color:#FFFFCC;stop-opacity:1;" offset="1.0" id="stopFFFFCC" /></linearGradient><linearGradient xmlns:xlink="http://www.w3.org/1999/xlink" xlink:href="#linearGradientFAFBFCFFFFCC" id="linearGradientFAFBFCFFFFCC_287290103" x1="0" y1="203.0" x2="0" y2="238.0" gradientUnits="userSpaceOnUse" xlink:type="simple" xlink:actuate="onLoad" xlink:show="other" /><linearGradient xmlns:xlink="http://www.w3.org/1999/xlink" xlink:href="#linearGradientF8FBFEEDF5FCDEEDFAD4E7F8E2E5E9" id="linearGradientF8FBFEEDF5FCDEEDFAD4E7F8E2E5E9_1411198640" x1="0" y1="330.0" x2="0" y2="436.0" gradientUnits="userSpaceOnUse" xlink:type="simple" xlink:actuate="onLoad" xlink:show="other" /><linearGradient id="linearGradientF8FBFEEDF5FCDEEDFAD4E7F8E2E5E9"><stop style="stop-color:#F8FBFE;stop-opacity:1;" offset="0.0" id="stopF8FBFE" /><stop style="stop-color:#EDF5FC;stop-opacity:1;" offset="0.25" id="stopEDF5FC" /><stop style="stop-color:#DEEDFA;stop-opacity:1;" offset="0.5" id="stopDEEDFA" /><stop style="stop-color:#D4E7F8;stop-opacity:1;" offset="0.75" id="stopD4E7F8" /><stop style="stop-color:#E2E5E9;stop-opacity:1;" offset="1.0" id="stopE2E5E9" /></linearGradient><linearGradient xmlns:xlink="http://www.w3.org/1999/xlink" xlink:href="#linearGradientF8FBFEEDF5FCDEEDFAD4E7F8E2E5E9" id="linearGradientF8FBFEEDF5FCDEEDFAD4E7F8E2E5E9_1897135701" x1="0" y1="485.0" x2="0" y2="591.0" gradientUnits="userSpaceOnUse" xlink:type="simple" xlink:actuate="onLoad" xlink:show="other" /><linearGradient xmlns:xlink="http://www.w3.org/1999/xlink" xlink:href="#linearGradientF8FBFEEDF5FCDEEDFAD4E7F8E2E5E9" id="linearGradientF8FBFEEDF5FCDEEDFAD4E7F8E2E5E9_1703123072" x1="0" y1="640.0" x2="0" y2="746.0" gradientUnits="userSpaceOnUse" xlink:type="simple" xlink:actuate="onLoad" xlink:show="other" /><linearGradient xmlns:xlink="http://www.w3.org/1999/xlink" xlink:href="#linearGradientFAFBFCFFFFCC" id="linearGradientFAFBFCFFFFCC_157750989" x1="0" y1="469.0" x2="0" y2="529.0" gradientUnits="userSpaceOnUse" xlink:type="simple" xlink:actuate="onLoad" xlink:show="other" /><linearGradient xmlns:xlink="http://www.w3.org/1999/xlink" xlink:href="#linearGradientFF6666FF9696FFB6B6" id="linearGradientFF6666FF9696FFB6B6_875745791" x1="0" y1="495.0" x2="0" y2="530.0" gradientUnits="userSpaceOnUse" xlink:type="simple" xlink:actuate="onLoad" xlink:show="other" /><linearGradient id="linearGradientFF6666FF9696FFB6B6"><stop style="stop-color:#FF6666;stop-opacity:1;" offset="0.0" id="stopFF6666" /><stop style="stop-color:#FF9696;stop-opacity:1;" offset="0.5" id="stopFF9696" /><stop style="stop-color:#FFB6B6;stop-opacity:1;" offset="1.0" id="stopFFB6B6" /></linearGradient></defs></svg>
