<?xml version="1.0" encoding="UTF-8"?>
<svg xmlns="http://www.w3.org/2000/svg" style="stroke-dasharray:none; shape-rendering:auto; font-family:'Arial'; text-rendering:auto; fill-opacity:1; color-interpolation:auto; color-rendering:auto; font-size:12; fill:black; stroke:black; image-rendering:auto; stroke-miterlimit:10; stroke-linecap:square; stroke-linejoin:miter; font-style:normal; stroke-width:1; stroke-dashoffset:0; font-weight:normal; stroke-opacity:1;" contentScriptType="text/ecmascript" preserveAspectRatio="xMidYMid meet" zoomAndPan="magnify" version="1.0" contentStyleType="text/css" xml:xlink="http://www.w3.org/1999/xlink" width="925" height="347"><g sequence="1"><ellipse cx="117" cy="97" rx="17" ry="17" stroke-width="1" style="fill:url(#linearGradient66FF6696FF96B6FFB6_1161652359);" stroke="336633" /></g><g sequence="2"><rect x="190" y="70" width="105" height="56" ry="5" rx="5" style="fill:url(#linearGradientF8FBFEEDF5FCDEEDFAD4E7F8E2E5E9_1274715728);" stroke="191970" /></g><g componentSequence="2"><text x="242" y="87" text-anchor="middle" style="font-weight:bold;font-size:10px;stroke:none; fill:#333399"><tspan dy="14" x="242">Atividade1</tspan></text></g><g sequence="4"><rect x="366" y="70" width="105" height="56" ry="5" rx="5" style="fill:url(#linearGradientF8FBFEEDF5FCDEEDFAD4E7F8E2E5E9_1338311671);" stroke="191970" /></g><g componentSequence="4"><text x="418" y="87" text-anchor="middle" style="font-weight:bold;font-size:10px;stroke:none; fill:#333399"><tspan dy="14" x="418">Atividade2</tspan></text></g><g sequence="6"><rect x="541" y="70" width="105" height="56" ry="5" rx="5" style="fill:url(#linearGradientF8FBFEEDF5FCDEEDFAD4E7F8E2E5E9_180851819);" stroke="191970" /></g><g componentSequence="6"><text x="593" y="87" text-anchor="middle" style="font-weight:bold;font-size:10px;stroke:none; fill:#333399"><tspan dy="14" x="593">Atividade3</tspan></text></g><g sequence="8"><rect x="470" y="188" width="105" height="56" ry="5" rx="5" style="fill:url(#linearGradientF8FBFEEDF5FCDEEDFAD4E7F8E2E5E9_605072612);" stroke="191970" /></g><g componentSequence="8"><text x="522" y="205" text-anchor="middle" style="font-weight:bold;font-size:10px;stroke:none; fill:#333399"><tspan dy="14" x="522">Atividade5</tspan></text></g><g sequence="10"><rect x="310" y="189" width="105" height="56" ry="5" rx="5" style="fill:url(#linearGradientF8FBFEEDF5FCDEEDFAD4E7F8E2E5E9_990363176);" stroke="191970" /></g><g componentSequence="10"><text x="362" y="206" text-anchor="middle" style="font-weight:bold;font-size:10px;stroke:none; fill:#333399"><tspan dy="14" x="362">Atividade4</tspan></text></g><g sequence="12"><rect x="380" y="290" width="105" height="56" ry="5" rx="5" style="fill:url(#linearGradientF8FBFEEDF5FCDEEDFAD4E7F8E2E5E9_1547360260);" stroke="191970" /></g><g componentSequence="12"><text x="432" y="307" text-anchor="middle" style="font-weight:bold;font-size:10px;stroke:none; fill:#333399"><tspan dy="14" x="432">Atividade6</tspan></text></g><g sequence="14"><rect x="550" y="290" width="105" height="56" ry="5" rx="5" style="fill:url(#linearGradientF8FBFEEDF5FCDEEDFAD4E7F8E2E5E9_1793616676);" stroke="191970" /></g><g componentSequence="14"><text x="602" y="307" text-anchor="middle" style="font-weight:bold;font-size:10px;stroke:none; fill:#333399"><tspan dy="14" x="602">Atividade7</tspan></text></g><g sequence="16"><rect x="710" y="291" width="105" height="56" ry="5" rx="5" style="fill:url(#linearGradientF8FBFEEDF5FCDEEDFAD4E7F8E2E5E9_1262394641);" stroke="191970" /></g><g componentSequence="16"><text x="762" y="308" text-anchor="middle" style="font-weight:bold;font-size:10px;stroke:none; fill:#333399"><tspan dy="14" x="762">Atividade8</tspan></text></g><g sequence="18"><ellipse cx="907" cy="318" rx="17" ry="17" stroke-width="3" style="fill:url(#linearGradientFF6666FF9696FFB6B6_1305382048);" stroke="993333" /></g><g sequence="23"><ellipse cx="242" cy="183" rx="17" ry="17" stroke-width="1" style="fill:url(#linearGradientFFFF66FFFF96FFFFB6_1195284453);" stroke="999900" /></g><g sequence="23"><polygon points=" 228 176 243 176 243 169 258 184 243 199 243 192 228 192" style="stroke:none; fill:#999900" /></g><g sequence="24"><ellipse cx="671" cy="215" rx="17" ry="17" stroke-width="1" style="fill:url(#linearGradientFFFF66FFFF96FFFFB6_1856402797);" stroke="999900" /></g><g sequence="24"><polygon points=" 657 208 672 208 672 201 687 216 672 231 672 224 657 224" style="stroke:#999900; fill:none" /></g><g componentSequence="7"><text x="516" y="98" style="font-size:10px;font-weight:none;stroke:none; fill:#333399" text-anchor="left" /></g><g componentSequence="15"><text x="527" y="318" style="font-size:10px;font-weight:none;stroke:none; fill:#333399" text-anchor="left" /></g><g componentSequence="17"><text x="692" y="318" style="font-size:10px;font-weight:none;stroke:none; fill:#333399" text-anchor="left" /></g><g componentSequence="19"><text x="862" y="318" style="font-size:10px;font-weight:none;stroke:none; fill:#333399" text-anchor="left" /></g><g componentSequence="20"><text x="497" y="166" style="font-size:10px;font-weight:none;stroke:none; fill:#333399" text-anchor="left" /></g><g componentSequence="21"><text x="452" y="216" style="font-size:10px;font-weight:none;stroke:none; fill:#333399" text-anchor="left" /></g><g componentSequence="22"><text x="488" y="266" style="font-size:10px;font-weight:none;stroke:none; fill:#333399" text-anchor="left" /></g><g componentSequence="25"><text x="624" y="215" style="font-size:10px;font-weight:none;stroke:none; fill:#333399" text-anchor="left" /></g><g componentSequence="26"><text x="252" y="146" style="font-size:10px;font-weight:none;stroke:none; fill:#333399" text-anchor="left" /></g><g componentSequence="5"><text x="340" y="98" style="font-size:10px;font-weight:none;stroke:none; fill:#333399" text-anchor="left" /></g><g componentSequence="3"><text x="172" y="97" style="font-size:10px;font-weight:none;stroke:none; fill:#333399" text-anchor="left" /></g><path style="fill:none; stroke:#000000;stroke-width:1" d="M134.0 97.0 L189.0 97.0" /><polygon style="fill:#000000; stroke:#000000;" points=" 179 92 189 97 179 102 181 97" /><path style="fill:none; stroke:#000000;stroke-width:1" d="M295.0 98.0 L365.0 98.0" /><polygon style="fill:#000000; stroke:#000000;" points=" 355 93 365 98 355 103 357 98" /><path style="fill:none; stroke:#000000;stroke-width:1" d="M471.0 98.0 L540.0 98.0" /><polygon style="fill:#000000; stroke:#000000;" points=" 530 93 540 98 530 103 532 98" /><path style="fill:none; stroke:#000000;stroke-width:1" d="M485.0 318.0 L549.0 318.0" /><polygon style="fill:#000000; stroke:#000000;" points=" 539 313 549 318 539 323 541 318" /><path style="fill:none; stroke:#000000;stroke-width:1" d="M655.0 318.0 L709.0 318.0" /><polygon style="fill:#000000; stroke:#000000;" points=" 699 313 709 318 699 323 701 318" /><path style="fill:none; stroke:#000000;stroke-width:1" d="M815.0 318.0 L890.0 318.0" /><polygon style="fill:#000000; stroke:#000000;" points=" 880 313 890 318 880 323 882 318" /><path style="fill:none; stroke:#000000;stroke-width:1" d="M593.0 126.0 L593.0 166.0 L362.0 166.0 L362.0 188.0" /><polygon style="fill:#000000; stroke:#000000;" points=" 367 178 362 188 357 178 362 180" /><path style="fill:none; stroke:#000000;stroke-width:1" d="M415.0 216.0 L469.0 216.0" /><polygon style="fill:#000000; stroke:#000000;" points=" 459 211 469 216 459 221 461 216" /><path style="fill:none; stroke:#000000;stroke-width:1" d="M523.0 244.0 L523.0 266.0 L433.0 266.0 L433.0 289.0" /><polygon style="fill:#000000; stroke:#000000;" points=" 438 279 433 289 428 279 433 281" /><path style="fill:none; stroke:#000000;stroke-width:1" d="M654.0 215.0 L575.0 215.0" /><polygon style="fill:#000000; stroke:#000000;" points=" 585 220 575 215 585 210 583 215" /><path style="fill:none; stroke:#000000;stroke-width:1" d="M242.0 126.0 L242.0 165.0" /><polygon style="fill:#000000; stroke:#000000;" points=" 247 155 242 165 237 155 242 157" /><defs><linearGradient xmlns:xlink="http://www.w3.org/1999/xlink" xlink:href="#linearGradient66FF6696FF96B6FFB6" id="linearGradient66FF6696FF96B6FFB6_1161652359" x1="0" y1="80.0" x2="0" y2="115.0" gradientUnits="userSpaceOnUse" xlink:type="simple" xlink:actuate="onLoad" xlink:show="other" /><linearGradient id="linearGradient66FF6696FF96B6FFB6"><stop style="stop-color:#66FF66;stop-opacity:1;" offset="0.0" id="stop66FF66" /><stop style="stop-color:#96FF96;stop-opacity:1;" offset="0.5" id="stop96FF96" /><stop style="stop-color:#B6FFB6;stop-opacity:1;" offset="1.0" id="stopB6FFB6" /></linearGradient><linearGradient xmlns:xlink="http://www.w3.org/1999/xlink" xlink:href="#linearGradientF8FBFEEDF5FCDEEDFAD4E7F8E2E5E9" id="linearGradientF8FBFEEDF5FCDEEDFAD4E7F8E2E5E9_1274715728" x1="0" y1="70.0" x2="0" y2="175.0" gradientUnits="userSpaceOnUse" xlink:type="simple" xlink:actuate="onLoad" xlink:show="other" /><linearGradient id="linearGradientF8FBFEEDF5FCDEEDFAD4E7F8E2E5E9"><stop style="stop-color:#F8FBFE;stop-opacity:1;" offset="0.0" id="stopF8FBFE" /><stop style="stop-color:#EDF5FC;stop-opacity:1;" offset="0.25" id="stopEDF5FC" /><stop style="stop-color:#DEEDFA;stop-opacity:1;" offset="0.5" id="stopDEEDFA" /><stop style="stop-color:#D4E7F8;stop-opacity:1;" offset="0.75" id="stopD4E7F8" /><stop style="stop-color:#E2E5E9;stop-opacity:1;" offset="1.0" id="stopE2E5E9" /></linearGradient><linearGradient xmlns:xlink="http://www.w3.org/1999/xlink" xlink:href="#linearGradientF8FBFEEDF5FCDEEDFAD4E7F8E2E5E9" id="linearGradientF8FBFEEDF5FCDEEDFAD4E7F8E2E5E9_1338311671" x1="0" y1="70.0" x2="0" y2="175.0" gradientUnits="userSpaceOnUse" xlink:type="simple" xlink:actuate="onLoad" xlink:show="other" /><linearGradient xmlns:xlink="http://www.w3.org/1999/xlink" xlink:href="#linearGradientF8FBFEEDF5FCDEEDFAD4E7F8E2E5E9" id="linearGradientF8FBFEEDF5FCDEEDFAD4E7F8E2E5E9_180851819" x1="0" y1="70.0" x2="0" y2="175.0" gradientUnits="userSpaceOnUse" xlink:type="simple" xlink:actuate="onLoad" xlink:show="other" /><linearGradient xmlns:xlink="http://www.w3.org/1999/xlink" xlink:href="#linearGradientF8FBFEEDF5FCDEEDFAD4E7F8E2E5E9" id="linearGradientF8FBFEEDF5FCDEEDFAD4E7F8E2E5E9_605072612" x1="0" y1="188.0" x2="0" y2="293.0" gradientUnits="userSpaceOnUse" xlink:type="simple" xlink:actuate="onLoad" xlink:show="other" /><linearGradient xmlns:xlink="http://www.w3.org/1999/xlink" xlink:href="#linearGradientF8FBFEEDF5FCDEEDFAD4E7F8E2E5E9" id="linearGradientF8FBFEEDF5FCDEEDFAD4E7F8E2E5E9_990363176" x1="0" y1="189.0" x2="0" y2="294.0" gradientUnits="userSpaceOnUse" xlink:type="simple" xlink:actuate="onLoad" xlink:show="other" /><linearGradient xmlns:xlink="http://www.w3.org/1999/xlink" xlink:href="#linearGradientF8FBFEEDF5FCDEEDFAD4E7F8E2E5E9" id="linearGradientF8FBFEEDF5FCDEEDFAD4E7F8E2E5E9_1547360260" x1="0" y1="290.0" x2="0" y2="395.0" gradientUnits="userSpaceOnUse" xlink:type="simple" xlink:actuate="onLoad" xlink:show="other" /><linearGradient xmlns:xlink="http://www.w3.org/1999/xlink" xlink:href="#linearGradientF8FBFEEDF5FCDEEDFAD4E7F8E2E5E9" id="linearGradientF8FBFEEDF5FCDEEDFAD4E7F8E2E5E9_1793616676" x1="0" y1="290.0" x2="0" y2="395.0" gradientUnits="userSpaceOnUse" xlink:type="simple" xlink:actuate="onLoad" xlink:show="other" /><linearGradient xmlns:xlink="http://www.w3.org/1999/xlink" xlink:href="#linearGradientF8FBFEEDF5FCDEEDFAD4E7F8E2E5E9" id="linearGradientF8FBFEEDF5FCDEEDFAD4E7F8E2E5E9_1262394641" x1="0" y1="291.0" x2="0" y2="396.0" gradientUnits="userSpaceOnUse" xlink:type="simple" xlink:actuate="onLoad" xlink:show="other" /><linearGradient xmlns:xlink="http://www.w3.org/1999/xlink" xlink:href="#linearGradientFF6666FF9696FFB6B6" id="linearGradientFF6666FF9696FFB6B6_1305382048" x1="0" y1="301.0" x2="0" y2="336.0" gradientUnits="userSpaceOnUse" xlink:type="simple" xlink:actuate="onLoad" xlink:show="other" /><linearGradient id="linearGradientFF6666FF9696FFB6B6"><stop style="stop-color:#FF6666;stop-opacity:1;" offset="0.0" id="stopFF6666" /><stop style="stop-color:#FF9696;stop-opacity:1;" offset="0.5" id="stopFF9696" /><stop style="stop-color:#FFB6B6;stop-opacity:1;" offset="1.0" id="stopFFB6B6" /></linearGradient><linearGradient xmlns:xlink="http://www.w3.org/1999/xlink" xlink:href="#linearGradientFFFF66FFFF96FFFFB6" id="linearGradientFFFF66FFFF96FFFFB6_1195284453" x1="0" y1="166.0" x2="0" y2="201.0" gradientUnits="userSpaceOnUse" xlink:type="simple" xlink:actuate="onLoad" xlink:show="other" /><linearGradient id="linearGradientFFFF66FFFF96FFFFB6"><stop style="stop-color:#FFFF66;stop-opacity:1;" offset="0.0" id="stopFFFF66" /><stop style="stop-color:#FFFF96;stop-opacity:1;" offset="0.5" id="stopFFFF96" /><stop style="stop-color:#FFFFB6;stop-opacity:1;" offset="1.0" id="stopFFFFB6" /></linearGradient><linearGradient xmlns:xlink="http://www.w3.org/1999/xlink" xlink:href="#linearGradientFFFF66FFFF96FFFFB6" id="linearGradientFFFF66FFFF96FFFFB6_1856402797" x1="0" y1="198.0" x2="0" y2="233.0" gradientUnits="userSpaceOnUse" xlink:type="simple" xlink:actuate="onLoad" xlink:show="other" /></defs></svg>
